<svg width="125" height="71" viewBox="0 0 125 71" fill="none" xmlns="http://www.w3.org/2000/svg">
<path d="M7.56183 61.0781H2.85097C2.466 61.0781 2.18234 60.9971 1.99998 60.835C1.83789 60.6526 1.75684 60.369 1.75684 59.984V40.2896C1.75684 39.9046 1.83789 39.6311 1.99998 39.469C2.18234 39.2866 2.466 39.1955 2.85097 39.1955H16.4061C16.791 39.1955 17.0646 39.2866 17.2267 39.469C17.409 39.6311 17.5002 39.9046 17.5002 40.2896V43.9063C17.5002 44.2913 17.409 44.5749 17.2267 44.7573C17.0646 44.9194 16.791 45.0004 16.4061 45.0004H8.65596V48.1613H13.9443C14.3292 48.1613 14.6028 48.2524 14.7649 48.4348C14.9472 48.5969 15.0384 48.8704 15.0384 49.2554V52.9025C15.0384 53.2875 14.9472 53.5712 14.7649 53.7535C14.6028 53.9156 14.3292 53.9966 13.9443 53.9966H8.65596V59.984C8.65596 60.369 8.56478 60.6526 8.38243 60.835C8.22033 60.9971 7.9468 61.0781 7.56183 61.0781ZM27.4084 45.5779L25.98 50.1976H30.7516L29.3232 45.5779C29.2421 45.3955 29.1509 45.2638 29.0496 45.1828C28.9686 45.1017 28.8673 45.0612 28.7457 45.0612H27.9859C27.8643 45.0612 27.7529 45.1017 27.6516 45.1828C27.5705 45.2638 27.4895 45.3955 27.4084 45.5779ZM25.6761 59.984C25.6761 60.369 25.5849 60.6526 25.4025 60.835C25.2404 60.9971 24.9669 61.0781 24.5819 61.0781H20.1142C19.7292 61.0781 19.4456 60.9971 19.2632 60.835C19.1011 60.6526 19.0201 60.369 19.0201 59.984V51.9603C19.0201 51.3525 19.1113 50.6535 19.2936 49.8633C19.4962 49.073 19.8002 48.1511 20.2054 47.0975L22.8495 40.1984C22.9711 39.854 23.1535 39.6007 23.3966 39.4386C23.66 39.2765 23.9943 39.1955 24.3996 39.1955H32.5752C32.9601 39.1955 33.2742 39.2765 33.5173 39.4386C33.7807 39.6007 33.9732 39.854 34.0948 40.1984L36.739 47.0975C37.1442 48.1511 37.438 49.073 37.6203 49.8633C37.823 50.6535 37.9243 51.3525 37.9243 51.9603V59.984C37.9243 60.369 37.8331 60.6526 37.6507 60.835C37.4886 60.9971 37.2151 61.0781 36.8301 61.0781H32.2409C31.8356 61.0781 31.5317 60.9971 31.3291 60.835C31.1467 60.6526 31.0555 60.369 31.0555 59.984V55.729H25.6761V59.984ZM58.2408 61.0781H42.7709C42.386 61.0781 42.1023 60.9971 41.9199 60.835C41.7579 60.6526 41.6768 60.369 41.6768 59.984V40.2896C41.6768 39.9046 41.7579 39.6311 41.9199 39.469C42.1023 39.2866 42.386 39.1955 42.7709 39.1955H47.4818C47.8668 39.1955 48.1403 39.2866 48.3024 39.469C48.4847 39.6311 48.5759 39.9046 48.5759 40.2896V55.3339H52.7397V50.4103C52.7397 50.0254 52.8208 49.7518 52.9829 49.5897C53.1652 49.4074 53.4489 49.3162 53.8338 49.3162H58.2408C58.6257 49.3162 58.8993 49.4074 59.0614 49.5897C59.2437 49.7518 59.3349 50.0254 59.3349 50.4103V59.984C59.3349 60.369 59.2437 60.6526 59.0614 60.835C58.8993 60.9971 58.6257 61.0781 58.2408 61.0781ZM77.3672 61.0781H69.9514C67.4187 61.0781 65.5344 60.5716 64.2984 59.5585C63.0827 58.5454 62.4748 56.9853 62.4748 54.878V45.4259C62.4748 43.3187 63.0827 41.7586 64.2984 40.7455C65.5344 39.7121 67.4187 39.1955 69.9514 39.1955H77.3672C77.7522 39.1955 78.0257 39.2866 78.1878 39.469C78.3702 39.6311 78.4613 39.9046 78.4613 40.2896V43.9671C78.4613 44.3521 78.3702 44.6357 78.1878 44.8181C78.0257 44.9802 77.7522 45.0612 77.3672 45.0612H71.2583C70.6302 45.0612 70.1642 45.1929 69.8602 45.4563C69.5563 45.6995 69.4043 46.0743 69.4043 46.5809V53.8143C69.4043 54.3208 69.5563 54.6957 69.8602 54.9388C70.1642 55.1617 70.6302 55.2731 71.2583 55.2731H77.3672C77.7522 55.2731 78.0257 55.3643 78.1878 55.5467C78.3702 55.7088 78.4613 55.9823 78.4613 56.3673V59.984C78.4613 60.369 78.3702 60.6526 78.1878 60.835C78.0257 60.9971 77.7522 61.0781 77.3672 61.0781ZM100.285 55.3339C100.285 56.266 100.143 57.117 99.8592 57.8869C99.5958 58.6366 99.1095 59.285 98.4003 59.832C97.7114 60.3588 96.749 60.7742 95.513 61.0781C94.2973 61.3821 92.7473 61.534 90.8629 61.534C88.9786 61.534 87.4185 61.3821 86.1825 61.0781C84.9465 60.7742 83.974 60.3588 83.2648 59.832C82.5759 59.285 82.0896 58.6366 81.806 57.8869C81.5426 57.117 81.4108 56.266 81.4108 55.3339V44.97C81.4108 44.038 81.5426 43.1971 81.806 42.4475C82.0896 41.6775 82.5759 41.019 83.2648 40.4719C83.974 39.9249 84.9465 39.4994 86.1825 39.1955C87.4185 38.8915 88.9786 38.7396 90.8629 38.7396C92.7473 38.7396 94.2973 38.8915 95.513 39.1955C96.749 39.4994 97.7114 39.9249 98.4003 40.4719C99.1095 41.019 99.5958 41.6775 99.8592 42.4475C100.143 43.1971 100.285 44.038 100.285 44.97V55.3339ZM88.31 54.2398C88.31 54.645 88.4619 54.9895 88.7659 55.2731C89.0698 55.5365 89.7688 55.6682 90.8629 55.6682C91.9571 55.6682 92.6561 55.5365 92.96 55.2731C93.264 54.9895 93.4159 54.645 93.4159 54.2398V46.0642C93.4159 45.6792 93.264 45.355 92.96 45.0916C92.6561 44.808 91.9571 44.6661 90.8629 44.6661C89.7688 44.6661 89.0698 44.808 88.7659 45.0916C88.4619 45.355 88.31 45.6792 88.31 46.0642V54.2398ZM109.807 61.0781H105.248C104.863 61.0781 104.579 60.9971 104.397 60.835C104.235 60.6526 104.154 60.369 104.154 59.984V40.2896C104.154 39.9046 104.235 39.6311 104.397 39.469C104.579 39.2866 104.863 39.1955 105.248 39.1955H108.409C108.794 39.1955 109.118 39.2562 109.381 39.3778C109.665 39.4994 109.939 39.7121 110.202 40.0161L116.098 46.7632V40.2896C116.098 39.9046 116.179 39.6311 116.341 39.469C116.524 39.2866 116.807 39.1955 117.192 39.1955H121.751C122.136 39.1955 122.41 39.2866 122.572 39.469C122.754 39.6311 122.845 39.9046 122.845 40.2896V59.984C122.845 60.369 122.754 60.6526 122.572 60.835C122.41 60.9971 122.136 61.0781 121.751 61.0781H117.192C116.807 61.0781 116.524 60.9971 116.341 60.835C116.179 60.6526 116.098 60.369 116.098 59.984V56.2457L110.901 49.9544V59.984C110.901 60.369 110.81 60.6526 110.627 60.835C110.465 60.9971 110.192 61.0781 109.807 61.0781Z" fill="white"/>
<path d="M48.5807 69.4707H46.1873C45.5541 69.4707 45.083 69.3441 44.774 69.0908C44.4701 68.8375 44.3181 68.4475 44.3181 67.9207V65.5501C44.3181 65.0233 44.4701 64.6332 44.774 64.3799C45.083 64.1267 45.5541 64 46.1873 64H48.0868C48.183 64 48.2514 64.0228 48.292 64.0684C48.3375 64.1089 48.3603 64.1773 48.3603 64.2736V65.1929C48.3603 65.2892 48.3375 65.3601 48.292 65.4057C48.2514 65.4462 48.183 65.4665 48.0868 65.4665H46.5064C46.3494 65.4665 46.2329 65.4994 46.1569 65.5653C46.0809 65.626 46.0429 65.7197 46.0429 65.8464V67.6623C46.0429 67.789 46.0708 67.8827 46.1265 67.9435C46.1873 68.0043 46.2759 68.0347 46.3924 68.0347H47.1294V66.8493C47.1294 66.7531 47.1497 66.6847 47.1902 66.6442C47.2358 66.5986 47.3067 66.5758 47.403 66.5758H48.5807C48.6769 66.5758 48.7453 66.5986 48.7858 66.6442C48.8314 66.6847 48.8542 66.7531 48.8542 66.8493V69.1972C48.8542 69.2934 48.8314 69.3643 48.7858 69.4099C48.7453 69.4504 48.6769 69.4707 48.5807 69.4707ZM51.7644 65.5956L51.4073 66.7506H52.6002L52.2431 65.5956C52.2228 65.5501 52.2 65.5171 52.1747 65.4969C52.1544 65.4766 52.1291 65.4665 52.0987 65.4665H51.9087C51.8783 65.4665 51.8505 65.4766 51.8252 65.4969C51.8049 65.5171 51.7846 65.5501 51.7644 65.5956ZM51.3313 69.1972C51.3313 69.2934 51.3085 69.3643 51.2629 69.4099C51.2224 69.4504 51.154 69.4707 51.0577 69.4707H49.9408C49.8446 69.4707 49.7737 69.4504 49.7281 69.4099C49.6875 69.3643 49.6673 69.2934 49.6673 69.1972V67.1913C49.6673 67.0393 49.6901 66.8645 49.7357 66.667C49.7863 66.4694 49.8623 66.239 49.9636 65.9756L50.6246 64.2508C50.655 64.1647 50.7006 64.1013 50.7614 64.0608C50.8273 64.0203 50.9108 64 51.0122 64H53.0561C53.1523 64 53.2308 64.0203 53.2916 64.0608C53.3574 64.1013 53.4056 64.1647 53.436 64.2508L54.097 65.9756C54.1983 66.239 54.2718 66.4694 54.3173 66.667C54.368 66.8645 54.3933 67.0393 54.3933 67.1913V69.1972C54.3933 69.2934 54.3705 69.3643 54.3249 69.4099C54.2844 69.4504 54.216 69.4707 54.1198 69.4707H52.9725C52.8712 69.4707 52.7952 69.4504 52.7445 69.4099C52.6989 69.3643 52.6761 69.2934 52.6761 69.1972V68.1334H51.3313V69.1972ZM57.6106 69.4707H56.3797C56.2835 69.4707 56.2126 69.4504 56.167 69.4099C56.1264 69.3643 56.1062 69.2934 56.1062 69.1972V65.4665H54.9893C54.893 65.4665 54.8221 65.4462 54.7765 65.4057C54.736 65.3601 54.7157 65.2892 54.7157 65.1929V64.2736C54.7157 64.1773 54.736 64.1089 54.7765 64.0684C54.8221 64.0228 54.893 64 54.9893 64H59.0011C59.0973 64 59.1657 64.0228 59.2062 64.0684C59.2518 64.1089 59.2746 64.1773 59.2746 64.2736V65.1929C59.2746 65.2892 59.2518 65.3601 59.2062 65.4057C59.1657 65.4462 59.0973 65.4665 59.0011 65.4665H57.8841V69.1972C57.8841 69.2934 57.8614 69.3643 57.8158 69.4099C57.7752 69.4504 57.7069 69.4707 57.6106 69.4707ZM63.8126 69.4707H60.2871C60.1908 69.4707 60.1199 69.4504 60.0743 69.4099C60.0338 69.3643 60.0135 69.2934 60.0135 69.1972V64.2736C60.0135 64.1773 60.0338 64.1089 60.0743 64.0684C60.1199 64.0228 60.1908 64 60.2871 64H63.8126C63.9088 64 63.9772 64.0228 64.0178 64.0684C64.0633 64.1089 64.0861 64.1773 64.0861 64.2736V65.1626C64.0861 65.2588 64.0633 65.3297 64.0178 65.3753C63.9772 65.4158 63.9088 65.4361 63.8126 65.4361H61.7155V66.0211H63.1972C63.2934 66.0211 63.3618 66.0439 63.4023 66.0895C63.4479 66.1301 63.4707 66.1984 63.4707 66.2947V67.1077C63.4707 67.2039 63.4479 67.2748 63.4023 67.3204C63.3618 67.361 63.2934 67.3812 63.1972 67.3812H61.7155V68.0347H63.8126C63.9088 68.0347 63.9772 68.0574 64.0178 68.103C64.0633 68.1436 64.0861 68.2119 64.0861 68.3082V69.1972C64.0861 69.2934 64.0633 69.3643 64.0178 69.4099C63.9772 69.4504 63.9088 69.4707 63.8126 69.4707ZM68.9132 64H70.0453C70.1416 64 70.21 64.0228 70.2505 64.0684C70.2961 64.1089 70.3189 64.1773 70.3189 64.2736V67.2217C70.3189 67.3837 70.3113 67.5357 70.2961 67.6775C70.2859 67.8143 70.248 67.9764 70.1821 68.1638L69.8022 69.1972C69.7769 69.2732 69.7389 69.339 69.6882 69.3947C69.6426 69.4454 69.5793 69.4707 69.4983 69.4707H68.4877C68.4067 69.4707 68.3332 69.453 68.2674 69.4175C68.2015 69.3821 68.1585 69.3238 68.1382 69.2428L67.7887 68.0043C67.7735 67.9536 67.7532 67.9207 67.7279 67.9055C67.7076 67.8852 67.6823 67.8751 67.6519 67.8751H67.5835C67.5531 67.8751 67.5253 67.8852 67.5 67.9055C67.4797 67.9207 67.462 67.9536 67.4468 68.0043L67.0897 69.2428C67.0694 69.3187 67.0314 69.377 66.9757 69.4175C66.92 69.453 66.8516 69.4707 66.7705 69.4707H65.7676C65.6865 69.4707 65.6156 69.4454 65.5548 69.3947C65.4991 69.3441 65.4586 69.2782 65.4333 69.1972L65.0534 68.1486C64.9875 67.9612 64.947 67.7991 64.9318 67.6623C64.9217 67.5205 64.9166 67.3685 64.9166 67.2065V64.2736C64.9166 64.1773 64.9368 64.1089 64.9774 64.0684C65.023 64.0228 65.0939 64 65.1901 64H66.3602C66.4565 64 66.5249 64.0228 66.5654 64.0684C66.611 64.1089 66.6338 64.1773 66.6338 64.2736V67.0697L67.0745 66.1123C67.115 66.0262 67.1682 65.9654 67.234 65.93C67.2999 65.8945 67.3809 65.8768 67.4772 65.8768H67.7963C67.8925 65.8768 67.9736 65.8945 68.0394 65.93C68.1053 65.9654 68.1585 66.0262 68.199 66.1123L68.6397 67.0697V64.2736C68.6397 64.1773 68.6599 64.1089 68.7005 64.0684C68.7461 64.0228 68.817 64 68.9132 64ZM73.2826 65.5956L72.9255 66.7506H74.1184L73.7612 65.5956C73.741 65.5501 73.7182 65.5171 73.6929 65.4969C73.6726 65.4766 73.6473 65.4665 73.6169 65.4665H73.4269C73.3965 65.4665 73.3687 65.4766 73.3434 65.4969C73.3231 65.5171 73.3028 65.5501 73.2826 65.5956ZM72.8495 69.1972C72.8495 69.2934 72.8267 69.3643 72.7811 69.4099C72.7406 69.4504 72.6722 69.4707 72.5759 69.4707H71.459C71.3628 69.4707 71.2919 69.4504 71.2463 69.4099C71.2057 69.3643 71.1855 69.2934 71.1855 69.1972V67.1913C71.1855 67.0393 71.2083 66.8645 71.2539 66.667C71.3045 66.4694 71.3805 66.239 71.4818 65.9756L72.1428 64.2508C72.1732 64.1647 72.2188 64.1013 72.2796 64.0608C72.3455 64.0203 72.429 64 72.5303 64H74.5743C74.6705 64 74.749 64.0203 74.8098 64.0608C74.8756 64.1013 74.9238 64.1647 74.9542 64.2508L75.6152 65.9756C75.7165 66.239 75.79 66.4694 75.8355 66.667C75.8862 66.8645 75.9115 67.0393 75.9115 67.1913V69.1972C75.9115 69.2934 75.8887 69.3643 75.8431 69.4099C75.8026 69.4504 75.7342 69.4707 75.638 69.4707H74.4907C74.3894 69.4707 74.3134 69.4504 74.2627 69.4099C74.2171 69.3643 74.1943 69.2934 74.1943 69.1972V68.1334H72.8495V69.1972ZM79.4301 69.4707H78.1992C78.1029 69.4707 78.032 69.4504 77.9864 69.4099C77.9459 69.3643 77.9256 69.2934 77.9256 69.1972V68.2246L76.7631 66.667C76.6466 66.51 76.5681 66.3732 76.5276 66.2567C76.4921 66.1402 76.4744 65.9654 76.4744 65.7324V64.2736C76.4744 64.1773 76.4946 64.1089 76.5352 64.0684C76.5808 64.0228 76.6517 64 76.7479 64H77.918C78.0143 64 78.0827 64.0228 78.1232 64.0684C78.1688 64.1089 78.1916 64.1773 78.1916 64.2736V65.5197C78.1916 65.5703 78.1941 65.6235 78.1992 65.6792C78.2042 65.7349 78.2245 65.7881 78.26 65.8388L78.6095 66.3859C78.6348 66.4314 78.6601 66.4644 78.6854 66.4846C78.7158 66.5049 78.7513 66.515 78.7918 66.515H78.8678C78.9083 66.515 78.9413 66.5049 78.9666 66.4846C78.997 66.4644 79.0248 66.4314 79.0502 66.3859L79.3997 65.8388C79.4351 65.7881 79.4554 65.7349 79.4605 65.6792C79.4655 65.6235 79.4681 65.5703 79.4681 65.5197V64.2736C79.4681 64.1773 79.4883 64.1089 79.5288 64.0684C79.5744 64.0228 79.6453 64 79.7416 64H80.8737C80.97 64 81.0383 64.0228 81.0789 64.0684C81.1245 64.1089 81.1472 64.1773 81.1472 64.2736V65.7324C81.1472 65.9654 81.127 66.1402 81.0865 66.2567C81.0459 66.3732 80.97 66.51 80.8585 66.667L79.7036 68.2322V69.1972C79.7036 69.2934 79.6808 69.3643 79.6352 69.4099C79.5947 69.4504 79.5263 69.4707 79.4301 69.4707Z" fill="white"/>
<path d="M77.4961 4.29274C67.7262 4.44945 66.2508 0.937271 57.2633 3.92456C53.8654 5.08275 50.599 6.51028 47.7575 8.34673C45.3337 9.93832 43.3082 11.9658 42.4959 14.3336C44.3712 13.0285 46.7509 11.8752 49.3894 12.0098C52.4734 12.1421 54.893 13.8732 56.4745 15.7244C59.3847 19.2087 60.1162 31.277 60.0324 35.3735C63.9669 32.7622 63.9669 32.7622 66.3622 30.9441C62.8206 26.4375 61.3208 18.7742 60.3146 14.6611C59.9121 13.0159 59.6209 12.9092 60.9259 13.9874C64.8169 17.2024 66.9874 18.841 72.4479 22.9914C75.7189 20.5239 74.3588 21.3092 77.3634 19.1489C69.0071 16.9525 59.0944 10.5643 60.9597 7.78041C60.0733 7.32971 57.4545 10.1587 56.5966 10.2958C55.3988 10.5162 54.2386 10.122 53.1383 9.83058C66.1251 3.51503 66.4934 8.95222 77.6477 9.37338C77.7974 6.81315 77.7975 6.81332 77.4961 4.29274Z" fill="url(#paint0_linear_846_2719)"/>
<mask id="mask0_846_2719" style="mask-type:alpha" maskUnits="userSpaceOnUse" x="63" y="2" width="47" height="34">
<path d="M109.086 4.29225C96.3484 4.44896 94.425 0.936782 82.7079 3.92407C78.2781 5.08226 74.0197 6.50979 70.3152 8.34624C67.1553 9.93783 64.5146 11.9653 63.4556 14.3331C65.9004 13.028 69.0029 11.8747 72.4426 12.0094C76.4633 12.1416 79.6178 13.8727 81.6796 15.7239C85.4735 19.2082 86.4273 31.2765 86.3179 35.373C91.4474 32.7617 91.4474 32.7617 94.5701 30.9436C89.953 26.437 87.9977 18.7737 86.6859 14.6606C86.1611 13.0154 85.7816 12.9087 87.4828 13.9869C92.5555 17.2019 95.3853 18.8406 102.504 22.9909C106.769 20.5234 104.995 21.3087 108.912 19.1484C98.0184 16.952 85.0951 10.5638 87.5269 7.77992C86.3714 7.32922 82.9572 10.1582 81.8387 10.2953C80.2771 10.5157 78.7646 10.1215 77.3301 9.83009C94.2611 3.51454 94.7412 8.95173 109.283 9.37289C109.478 6.81266 109.478 6.81283 109.086 4.29225Z" fill="url(#paint1_linear_846_2719)"/>
</mask>
<g mask="url(#mask0_846_2719)">
<rect x="68.2441" y="-35.3179" width="7.1031" height="71.8417" transform="rotate(26.2003 68.2441 -35.3179)" fill="white" fill-opacity="0.8"/>
</g>
<defs>
<linearGradient id="paint0_linear_846_2719" x1="70.5883" y1="-0.144054" x2="38.1582" y2="22.8807" gradientUnits="userSpaceOnUse">
<stop offset="0.125" stop-color="#EFCB89"/>
<stop offset="0.526042" stop-color="#CA63C7"/>
<stop offset="1" stop-color="#3313C7"/>
</linearGradient>
<linearGradient id="paint1_linear_846_2719" x1="100.08" y1="-0.144542" x2="65.8311" y2="31.5562" gradientUnits="userSpaceOnUse">
<stop offset="0.125" stop-color="#EFCB89"/>
<stop offset="0.526042" stop-color="#CA63C7"/>
<stop offset="1" stop-color="#3313C7"/>
</linearGradient>
</defs>
</svg>
