<svg width="176" height="39" viewBox="0 0 176 39" fill="none" xmlns="http://www.w3.org/2000/svg">
<path d="M58.5775 29.0786H53.8666C53.4816 29.0786 53.198 28.9976 53.0156 28.8355C52.8535 28.6531 52.7725 28.3695 52.7725 27.9845V8.29008C52.7725 7.9051 52.8535 7.63157 53.0156 7.46948C53.198 7.28712 53.4816 7.19594 53.8666 7.19594H67.4217C67.8067 7.19594 68.0802 7.28712 68.2423 7.46948C68.4247 7.63157 68.5158 7.9051 68.5158 8.29008V11.9068C68.5158 12.2918 68.4247 12.5754 68.2423 12.7578C68.0802 12.9199 67.8067 13.0009 67.4217 13.0009H59.6716V16.1618H64.9599C65.3449 16.1618 65.6184 16.2529 65.7805 16.4353C65.9629 16.5974 66.054 16.8709 66.054 17.2559V20.903C66.054 21.288 65.9629 21.5716 65.7805 21.754C65.6184 21.9161 65.3449 21.9971 64.9599 21.9971H59.6716V27.9845C59.6716 28.3695 59.5804 28.6531 59.3981 28.8355C59.236 28.9976 58.9624 29.0786 58.5775 29.0786ZM78.4241 13.5784L76.9956 18.1981H81.7672L80.3388 13.5784C80.2577 13.396 80.1666 13.2643 80.0653 13.1833C79.9842 13.1022 79.8829 13.0617 79.7613 13.0617H79.0015C78.8799 13.0617 78.7685 13.1022 78.6672 13.1833C78.5862 13.2643 78.5051 13.396 78.4241 13.5784ZM76.6917 27.9845C76.6917 28.3695 76.6005 28.6531 76.4181 28.8355C76.2561 28.9976 75.9825 29.0786 75.5975 29.0786H71.1298C70.7449 29.0786 70.4612 28.9976 70.2788 28.8355C70.1167 28.6531 70.0357 28.3695 70.0357 27.9845V19.9608C70.0357 19.353 70.1269 18.654 70.3092 17.8637C70.5118 17.0735 70.8158 16.1516 71.221 15.098L73.8652 8.1989C73.9867 7.85445 74.1691 7.60118 74.4122 7.43908C74.6756 7.27699 75.01 7.19594 75.4152 7.19594H83.5908C83.9758 7.19594 84.2898 7.27699 84.533 7.43908C84.7964 7.60118 84.9889 7.85445 85.1104 8.1989L87.7546 15.098C88.1598 16.1516 88.4536 17.0735 88.636 17.8637C88.8386 18.654 88.9399 19.353 88.9399 19.9608V27.9845C88.9399 28.3695 88.8487 28.6531 88.6664 28.8355C88.5043 28.9976 88.2307 29.0786 87.8458 29.0786H83.2565C82.8512 29.0786 82.5473 28.9976 82.3447 28.8355C82.1623 28.6531 82.0712 28.3695 82.0712 27.9845V23.7295H76.6917V27.9845ZM109.256 29.0786H93.7866C93.4016 29.0786 93.1179 28.9976 92.9356 28.8355C92.7735 28.6531 92.6924 28.3695 92.6924 27.9845V8.29008C92.6924 7.9051 92.7735 7.63157 92.9356 7.46948C93.1179 7.28712 93.4016 7.19594 93.7866 7.19594H98.4974C98.8824 7.19594 99.1559 7.28712 99.318 7.46948C99.5004 7.63157 99.5915 7.9051 99.5915 8.29008V23.3344H103.755V18.4108C103.755 18.0258 103.836 17.7523 103.998 17.5902C104.181 17.4079 104.464 17.3167 104.849 17.3167H109.256C109.641 17.3167 109.915 17.4079 110.077 17.5902C110.259 17.7523 110.351 18.0258 110.351 18.4108V27.9845C110.351 28.3695 110.259 28.6531 110.077 28.8355C109.915 28.9976 109.641 29.0786 109.256 29.0786ZM128.383 29.0786H120.967C118.434 29.0786 116.55 28.5721 115.314 27.559C114.098 26.5459 113.49 24.9857 113.49 22.8785V13.4264C113.49 11.3192 114.098 9.75905 115.314 8.74596C116.55 7.71262 118.434 7.19594 120.967 7.19594H128.383C128.768 7.19594 129.041 7.28712 129.203 7.46948C129.386 7.63157 129.477 7.9051 129.477 8.29008V11.9676C129.477 12.3526 129.386 12.6362 129.203 12.8186C129.041 12.9807 128.768 13.0617 128.383 13.0617H122.274C121.646 13.0617 121.18 13.1934 120.876 13.4568C120.572 13.7 120.42 14.0748 120.42 14.5813V21.8148C120.42 22.3213 120.572 22.6962 120.876 22.9393C121.18 23.1622 121.646 23.2736 122.274 23.2736H128.383C128.768 23.2736 129.041 23.3648 129.203 23.5472C129.386 23.7093 129.477 23.9828 129.477 24.3678V27.9845C129.477 28.3695 129.386 28.6531 129.203 28.8355C129.041 28.9976 128.768 29.0786 128.383 29.0786ZM151.3 23.3344C151.3 24.2665 151.158 25.1174 150.875 25.8874C150.611 26.6371 150.125 27.2854 149.416 27.8325C148.727 28.3593 147.765 28.7747 146.529 29.0786C145.313 29.3825 143.763 29.5345 141.879 29.5345C139.994 29.5345 138.434 29.3825 137.198 29.0786C135.962 28.7747 134.99 28.3593 134.28 27.8325C133.592 27.2854 133.105 26.6371 132.822 25.8874C132.558 25.1174 132.426 24.2665 132.426 23.3344V12.9705C132.426 12.0385 132.558 11.1976 132.822 10.448C133.105 9.678 133.592 9.0195 134.28 8.47243C134.99 7.92536 135.962 7.49987 137.198 7.19594C138.434 6.89202 139.994 6.74005 141.879 6.74005C143.763 6.74005 145.313 6.89202 146.529 7.19594C147.765 7.49987 148.727 7.92536 149.416 8.47243C150.125 9.0195 150.611 9.678 150.875 10.448C151.158 11.1976 151.3 12.0385 151.3 12.9705V23.3344ZM139.326 22.2403C139.326 22.6455 139.478 22.99 139.781 23.2736C140.085 23.537 140.784 23.6687 141.879 23.6687C142.973 23.6687 143.672 23.537 143.976 23.2736C144.28 22.99 144.432 22.6455 144.432 22.2403V14.0647C144.432 13.6797 144.28 13.3555 143.976 13.0921C143.672 12.8084 142.973 12.6666 141.879 12.6666C140.784 12.6666 140.085 12.8084 139.781 13.0921C139.478 13.3555 139.326 13.6797 139.326 14.0647V22.2403ZM160.822 29.0786H156.264C155.879 29.0786 155.595 28.9976 155.413 28.8355C155.25 28.6531 155.169 28.3695 155.169 27.9845V8.29008C155.169 7.9051 155.25 7.63157 155.413 7.46948C155.595 7.28712 155.879 7.19594 156.264 7.19594H159.424C159.809 7.19594 160.134 7.25673 160.397 7.3783C160.681 7.49987 160.954 7.71262 161.218 8.01654L167.114 14.7637V8.29008C167.114 7.9051 167.195 7.63157 167.357 7.46948C167.539 7.28712 167.823 7.19594 168.208 7.19594H172.767C173.152 7.19594 173.425 7.28712 173.587 7.46948C173.77 7.63157 173.861 7.9051 173.861 8.29008V27.9845C173.861 28.3695 173.77 28.6531 173.587 28.8355C173.425 28.9976 173.152 29.0786 172.767 29.0786H168.208C167.823 29.0786 167.539 28.9976 167.357 28.8355C167.195 28.6531 167.114 28.3695 167.114 27.9845V24.2462L161.917 17.9549V27.9845C161.917 28.3695 161.825 28.6531 161.643 28.8355C161.481 28.9976 161.207 29.0786 160.822 29.0786Z" fill="white"/>
<path d="M99.5963 37.4712H97.2029C96.5697 37.4712 96.0986 37.3446 95.7896 37.0913C95.4857 36.838 95.3337 36.448 95.3337 35.9212V33.5505C95.3337 33.0237 95.4857 32.6337 95.7896 32.3804C96.0986 32.1272 96.5697 32.0005 97.2029 32.0005H99.1024C99.1987 32.0005 99.2671 32.0233 99.3076 32.0689C99.3532 32.1094 99.376 32.1778 99.376 32.2741V33.1934C99.376 33.2897 99.3532 33.3606 99.3076 33.4062C99.2671 33.4467 99.1987 33.467 99.1024 33.467H97.522C97.365 33.467 97.2485 33.4999 97.1725 33.5657C97.0965 33.6265 97.0585 33.7202 97.0585 33.8469V35.6628C97.0585 35.7895 97.0864 35.8832 97.1421 35.944C97.2029 36.0047 97.2915 36.0351 97.408 36.0351H98.1451V34.8498C98.1451 34.7536 98.1653 34.6852 98.2059 34.6447C98.2514 34.5991 98.3224 34.5763 98.4186 34.5763H99.5963C99.6926 34.5763 99.7609 34.5991 99.8015 34.6447C99.8471 34.6852 99.8698 34.7536 99.8698 34.8498V37.1977C99.8698 37.2939 99.8471 37.3648 99.8015 37.4104C99.7609 37.4509 99.6926 37.4712 99.5963 37.4712ZM102.78 33.5961L102.423 34.7511H103.616L103.259 33.5961C103.238 33.5505 103.216 33.5176 103.19 33.4974C103.17 33.4771 103.145 33.467 103.114 33.467H102.924C102.894 33.467 102.866 33.4771 102.841 33.4974C102.821 33.5176 102.8 33.5505 102.78 33.5961ZM102.347 37.1977C102.347 37.2939 102.324 37.3648 102.279 37.4104C102.238 37.4509 102.17 37.4712 102.073 37.4712H100.956C100.86 37.4712 100.789 37.4509 100.744 37.4104C100.703 37.3648 100.683 37.2939 100.683 37.1977V35.1917C100.683 35.0398 100.706 34.865 100.751 34.6675C100.802 34.4699 100.878 34.2394 100.979 33.976L101.64 32.2513C101.671 32.1652 101.716 32.1018 101.777 32.0613C101.843 32.0208 101.926 32.0005 102.028 32.0005H104.072C104.168 32.0005 104.246 32.0208 104.307 32.0613C104.373 32.1018 104.421 32.1652 104.452 32.2513L105.113 33.976C105.214 34.2394 105.287 34.4699 105.333 34.6675C105.384 34.865 105.409 35.0398 105.409 35.1917V37.1977C105.409 37.2939 105.386 37.3648 105.341 37.4104C105.3 37.4509 105.232 37.4712 105.135 37.4712H103.988C103.887 37.4712 103.811 37.4509 103.76 37.4104C103.715 37.3648 103.692 37.2939 103.692 37.1977V36.1339H102.347V37.1977ZM108.626 37.4712H107.395C107.299 37.4712 107.228 37.4509 107.183 37.4104C107.142 37.3648 107.122 37.2939 107.122 37.1977V33.467H106.005C105.909 33.467 105.838 33.4467 105.792 33.4062C105.752 33.3606 105.731 33.2897 105.731 33.1934V32.2741C105.731 32.1778 105.752 32.1094 105.792 32.0689C105.838 32.0233 105.909 32.0005 106.005 32.0005H110.017C110.113 32.0005 110.181 32.0233 110.222 32.0689C110.267 32.1094 110.29 32.1778 110.29 32.2741V33.1934C110.29 33.2897 110.267 33.3606 110.222 33.4062C110.181 33.4467 110.113 33.467 110.017 33.467H108.9V37.1977C108.9 37.2939 108.877 37.3648 108.831 37.4104C108.791 37.4509 108.722 37.4712 108.626 37.4712ZM114.828 37.4712H111.303C111.206 37.4712 111.136 37.4509 111.09 37.4104C111.049 37.3648 111.029 37.2939 111.029 37.1977V32.2741C111.029 32.1778 111.049 32.1094 111.09 32.0689C111.136 32.0233 111.206 32.0005 111.303 32.0005H114.828C114.924 32.0005 114.993 32.0233 115.033 32.0689C115.079 32.1094 115.102 32.1778 115.102 32.2741V33.163C115.102 33.2593 115.079 33.3302 115.033 33.3758C114.993 33.4163 114.924 33.4366 114.828 33.4366H112.731V34.0216H114.213C114.309 34.0216 114.377 34.0444 114.418 34.09C114.464 34.1305 114.486 34.1989 114.486 34.2952V35.1082C114.486 35.2044 114.464 35.2753 114.418 35.3209C114.377 35.3614 114.309 35.3817 114.213 35.3817H112.731V36.0351H114.828C114.924 36.0351 114.993 36.0579 115.033 36.1035C115.079 36.144 115.102 36.2124 115.102 36.3087V37.1977C115.102 37.2939 115.079 37.3648 115.033 37.4104C114.993 37.4509 114.924 37.4712 114.828 37.4712ZM119.929 32.0005H121.061C121.157 32.0005 121.226 32.0233 121.266 32.0689C121.312 32.1094 121.334 32.1778 121.334 32.2741V35.2221C121.334 35.3842 121.327 35.5362 121.312 35.678C121.302 35.8148 121.264 35.9769 121.198 36.1643L120.818 37.1977C120.792 37.2736 120.755 37.3395 120.704 37.3952C120.658 37.4459 120.595 37.4712 120.514 37.4712H119.503C119.422 37.4712 119.349 37.4535 119.283 37.418C119.217 37.3825 119.174 37.3243 119.154 37.2432L118.804 36.0047C118.789 35.9541 118.769 35.9212 118.744 35.906C118.723 35.8857 118.698 35.8756 118.668 35.8756H118.599C118.569 35.8756 118.541 35.8857 118.516 35.906C118.495 35.9212 118.478 35.9541 118.462 36.0047L118.105 37.2432C118.085 37.3192 118.047 37.3775 117.991 37.418C117.936 37.4535 117.867 37.4712 117.786 37.4712H116.783C116.702 37.4712 116.631 37.4459 116.57 37.3952C116.515 37.3446 116.474 37.2787 116.449 37.1977L116.069 36.1491C116.003 35.9617 115.963 35.7996 115.947 35.6628C115.937 35.521 115.932 35.369 115.932 35.2069V32.2741C115.932 32.1778 115.952 32.1094 115.993 32.0689C116.039 32.0233 116.11 32.0005 116.206 32.0005H117.376C117.472 32.0005 117.54 32.0233 117.581 32.0689C117.627 32.1094 117.649 32.1778 117.649 32.2741V35.0702L118.09 34.1128C118.131 34.0267 118.184 33.9659 118.25 33.9305C118.315 33.895 118.397 33.8773 118.493 33.8773H118.812C118.908 33.8773 118.989 33.895 119.055 33.9305C119.121 33.9659 119.174 34.0267 119.215 34.1128L119.655 35.0702V32.2741C119.655 32.1778 119.676 32.1094 119.716 32.0689C119.762 32.0233 119.833 32.0005 119.929 32.0005ZM124.298 33.5961L123.941 34.7511H125.134L124.777 33.5961C124.757 33.5505 124.734 33.5176 124.708 33.4974C124.688 33.4771 124.663 33.467 124.633 33.467H124.443C124.412 33.467 124.384 33.4771 124.359 33.4974C124.339 33.5176 124.318 33.5505 124.298 33.5961ZM123.865 37.1977C123.865 37.2939 123.842 37.3648 123.797 37.4104C123.756 37.4509 123.688 37.4712 123.592 37.4712H122.475C122.378 37.4712 122.307 37.4509 122.262 37.4104C122.221 37.3648 122.201 37.2939 122.201 37.1977V35.1917C122.201 35.0398 122.224 34.865 122.269 34.6675C122.32 34.4699 122.396 34.2394 122.497 33.976L123.158 32.2513C123.189 32.1652 123.234 32.1018 123.295 32.0613C123.361 32.0208 123.445 32.0005 123.546 32.0005H125.59C125.686 32.0005 125.765 32.0208 125.825 32.0613C125.891 32.1018 125.939 32.1652 125.97 32.2513L126.631 33.976C126.732 34.2394 126.806 34.4699 126.851 34.6675C126.902 34.865 126.927 35.0398 126.927 35.1917V37.1977C126.927 37.2939 126.904 37.3648 126.859 37.4104C126.818 37.4509 126.75 37.4712 126.654 37.4712H125.506C125.405 37.4712 125.329 37.4509 125.278 37.4104C125.233 37.3648 125.21 37.2939 125.21 37.1977V36.1339H123.865V37.1977ZM130.446 37.4712H129.215C129.119 37.4712 129.048 37.4509 129.002 37.4104C128.962 37.3648 128.941 37.2939 128.941 37.1977V36.2251L127.779 34.6675C127.662 34.5104 127.584 34.3737 127.543 34.2572C127.508 34.1407 127.49 33.9659 127.49 33.7329V32.2741C127.49 32.1778 127.51 32.1094 127.551 32.0689C127.596 32.0233 127.667 32.0005 127.764 32.0005H128.934C129.03 32.0005 129.098 32.0233 129.139 32.0689C129.184 32.1094 129.207 32.1778 129.207 32.2741V33.5202C129.207 33.5708 129.21 33.624 129.215 33.6797C129.22 33.7354 129.24 33.7886 129.276 33.8393L129.625 34.3863C129.65 34.4319 129.676 34.4649 129.701 34.4851C129.731 34.5054 129.767 34.5155 129.807 34.5155H129.883C129.924 34.5155 129.957 34.5054 129.982 34.4851C130.013 34.4649 130.04 34.4319 130.066 34.3863L130.415 33.8393C130.451 33.7886 130.471 33.7354 130.476 33.6797C130.481 33.624 130.484 33.5708 130.484 33.5202V32.2741C130.484 32.1778 130.504 32.1094 130.544 32.0689C130.59 32.0233 130.661 32.0005 130.757 32.0005H131.889C131.986 32.0005 132.054 32.0233 132.094 32.0689C132.14 32.1094 132.163 32.1778 132.163 32.2741V33.7329C132.163 33.9659 132.143 34.1407 132.102 34.2572C132.062 34.3737 131.986 34.5104 131.874 34.6675L130.719 36.2327V37.1977C130.719 37.2939 130.696 37.3648 130.651 37.4104C130.61 37.4509 130.542 37.4712 130.446 37.4712Z" fill="white"/>
<path d="M43.6812 8.49262C31.6252 8.64095 29.8046 5.31658 18.7141 8.14413C14.5212 9.24038 10.4905 10.5916 6.98411 12.3298C3.99312 13.8363 1.49367 15.7553 0.491312 17.9965C2.80538 16.7612 5.74199 15.6696 8.99777 15.7971C12.8034 15.9222 15.7892 17.5608 17.7408 19.3129C21.3318 22.611 22.2346 34.0339 22.1311 37.9114C26.9863 35.4397 26.9863 35.4397 29.942 33.7188C25.5718 29.4532 23.7211 22.1997 22.4794 18.3065C21.9827 16.7493 21.6234 16.6483 23.2337 17.6689C28.0351 20.7119 30.7135 22.263 37.4517 26.1914C41.4882 23.8559 39.8098 24.5991 43.5174 22.5543C33.2059 20.4754 20.9737 14.4288 23.2754 11.7938C22.1817 11.3672 18.9501 14.0449 17.8914 14.1747C16.4133 14.3833 14.9816 14.0101 13.6239 13.7343C29.6495 7.7565 30.1039 12.9029 43.8683 13.3016C44.0529 10.8783 44.0531 10.8784 43.6812 8.49262Z" fill="url(#paint0_linear_823_2688)"/>
<mask id="mask0_823_2688" style="mask-type:alpha" maskUnits="userSpaceOnUse" x="0" y="7" width="44" height="31">
<path d="M43.6812 8.49213C31.6252 8.64046 29.8046 5.31609 18.7141 8.14364C14.5212 9.2399 10.4905 10.5911 6.98411 12.3293C3.99312 13.8358 1.49367 15.7548 0.491312 17.996C2.80538 16.7607 5.74199 15.6691 8.99777 15.7966C12.8034 15.9217 15.7892 17.5603 17.7408 19.3125C21.3318 22.6105 22.2346 34.0334 22.1311 37.9109C26.9863 35.4392 26.9863 35.4392 29.942 33.7183C25.5718 29.4527 23.7211 22.1992 22.4794 18.3061C21.9827 16.7488 21.6234 16.6478 23.2337 17.6684C28.0351 20.7114 30.7135 22.2625 37.4517 26.1909C41.4882 23.8554 39.8098 24.5986 43.5174 22.5538C33.2059 20.4749 20.9737 14.4283 23.2754 11.7933C22.1817 11.3667 18.9501 14.0444 17.8914 14.1742C16.4133 14.3828 14.9816 14.0096 13.6239 13.7338C29.6495 7.75601 30.1039 12.9025 43.8683 13.3011C44.0529 10.8778 44.0531 10.8779 43.6812 8.49213Z" fill="url(#paint1_linear_823_2688)"/>
</mask>
<g mask="url(#mask0_823_2688)">
<rect x="5.02344" y="-29" width="6.72327" height="68" transform="rotate(26.2003 5.02344 -29)" fill="white" fill-opacity="0.8"/>
</g>
<defs>
<linearGradient id="paint0_linear_823_2688" x1="35.157" y1="4.29308" x2="2.73979" y2="34.2987" gradientUnits="userSpaceOnUse">
<stop offset="0.125" stop-color="#EFCB89"/>
<stop offset="0.526042" stop-color="#CA63C7"/>
<stop offset="1" stop-color="#3313C7"/>
</linearGradient>
<linearGradient id="paint1_linear_823_2688" x1="35.157" y1="4.29259" x2="2.73979" y2="34.2982" gradientUnits="userSpaceOnUse">
<stop offset="0.125" stop-color="#EFCB89"/>
<stop offset="0.526042" stop-color="#CA63C7"/>
<stop offset="1" stop-color="#3313C7"/>
</linearGradient>
</defs>
</svg>
